<svg image-rendering="optimizeSpeed" xmlns="http://www.w3.org/2000/svg" width="41.65" height="33.451" viewBox="187.167 -112.167 41.65 33.451" enable-background="new 187.167 -112.167 41.65 33.451"><path d="z" fill="none"/><g><g><path fill="#873D63" d="M354.064-133.567h-5.5v5.5h5.5v-5.5zm31.5 66h-5v5h5v-5zm-136.998-71h-8v8h8v-8zm14 77h-6v6h6v-6z"/><path stroke="#000" stroke-width=".1" stroke-linecap="round" stroke-linejoin="round" d="M354.064-133.567h-5.5v5.5h5.5v-5.5z" fill="none"/><path stroke="#000" stroke-width=".1" stroke-linecap="round" stroke-linejoin="round" d="M385.564-67.567h-5v5h5v-5z" fill="none"/><path stroke="#000" stroke-width=".1" stroke-linecap="round" stroke-linejoin="round" d="M248.566-138.567h-8v8h8v-8z" fill="none"/><path stroke="#000" stroke-width=".1" stroke-linecap="round" stroke-linejoin="round" d="M262.566-61.567h-6v6h6v-6z" fill="none"/></g><path fill="#8F8F8F" fill-opacity=".2" d="M197.967-95.517c.3.434.45 1 .45 1.7 0 2.35-1.3 4.9-3.95 7.55-1.5 1.55-3.7 3.4-6.65 5.45l1.15 2.1c4.2-2.45 7.45-4.8 9.7-7.05 4.1-4.25 6.15-9 6.15-14.15 0-3.4-.9-6.1-2.75-8.15-1.85-2-4.15-3-7-3-2.35 0-4.3.75-5.75 2.25-1.45 1.5-2.15 3.5-2.15 5.95 0 2.3.7 4.15 2.1 5.5 1.4 1.35 3.1 2.05 5.05 2.05.15 0 .5-.148.95-.398s.85-.35 1.2-.35c.65 0 1.15.2 1.5.548zm21.1-15.55c-2.35 0-4.3.75-5.75 2.25-1.45 1.5-2.15 3.5-2.15 5.95 0 2.3.7 4.15 2.1 5.5 1.4 1.35 3.1 2.05 5.05 2.05.15 0 .5-.148.95-.398s.85-.35 1.2-.35c.65 0 1.15.2 1.5.55.3.45.45 1 .45 1.7 0 2.35-1.3 4.9-3.95 7.55-1.5 1.55-3.7 3.4-6.65 5.45l1.15 2.1c4.2-2.45 7.45-4.8 9.7-7.05 4.1-4.25 6.15-9 6.15-14.15 0-3.4-.9-6.1-2.75-8.15-1.85-2-4.15-3-7-3z"/></g><path d="z" fill="none"/></svg>