<svg image-rendering="optimizeSpeed" xmlns="http://www.w3.org/2000/svg" width="65.334" height="65.267" viewBox="284.833 46.833 65.334 65.267" enable-background="new 284.833 46.833 65.334 65.267"><path d="z" fill="none"/><g><g><path fill="#873D63" d="M363.55 40.1h-5.5v5.5h5.5v-5.5zm31.5 66h-5v5h5v-5zm-137-71h-8v8h8v-8zm14 77h-6v6h6v-6z"/><path stroke="#000" stroke-width=".1" stroke-linecap="round" stroke-linejoin="round" d="M363.55 40.1h-5.5v5.5h5.5v-5.5z" fill="none"/><path stroke="#000" stroke-width=".1" stroke-linecap="round" stroke-linejoin="round" d="M395.05 106.1h-5v5h5v-5z" fill="none"/><path stroke="#000" stroke-width=".1" stroke-linecap="round" stroke-linejoin="round" d="M258.05 35.1h-8v8h8v-8z" fill="none"/><path stroke="#000" stroke-width=".1" stroke-linecap="round" stroke-linejoin="round" d="M272.05 112.1h-6v6h6v-6z" fill="none"/></g><path fill="#ddd" d="M335.05 72.55c.034-6.767-2.333-12.533-7.1-17.3-4.8-4.8-10.6-7.2-17.4-7.2-6.75 0-12.5 2.4-17.3 7.2-4.75 4.75-7.15 10.55-7.2 17.3.05 6.75 2.45 12.55 7.25 17.35 4.75 4.75 10.5 7.15 17.25 7.15 4.85 0 9.25-1.25 13.1-3.7l18.05 18.05 7.75-7.75L331.4 85.6c2.45-3.85 3.65-8.2 3.65-13.05zM320.5 62.7c2.75 2.75 4.1 6.05 4.1 9.9-.05 2.15-.5 4.2-1.35 6.05-.65 1.35-1.55 2.65-2.75 3.85-1.15 1.15-2.45 2.05-3.8 2.7-1.9.9-3.95 1.35-6.1 1.4-3.85 0-7.15-1.35-9.9-4.1s-4.1-6.05-4.15-9.95c.05-3.85 1.4-7.1 4.15-9.85s6-4.1 9.85-4.15c3.9.05 7.2 1.4 9.95 4.15z"/></g><path d="z" fill="none"/></svg>